<?xml version="1.0" encoding="UTF-8" standalone="no"?>
<svg
   xmlns:dc="http://purl.org/dc/elements/1.1/"
   xmlns:cc="http://creativecommons.org/ns#"
   xmlns:rdf="http://www.w3.org/1999/02/22-rdf-syntax-ns#"
   xmlns:svg="http://www.w3.org/2000/svg"
   xmlns="http://www.w3.org/2000/svg"
   xmlns:sodipodi="http://sodipodi.sourceforge.net/DTD/sodipodi-0.dtd"
   xmlns:inkscape="http://www.inkscape.org/namespaces/inkscape"
   width="16"
   height="16"
   version="1.1"
   id="svg4"
   sodipodi:docname="dialog-question-symbolic.svg"
   inkscape:version="0.92.4 5da689c313, 2019-01-14">
  <metadata
     id="metadata10">
    <rdf:RDF>
      <cc:Work
         rdf:about="">
        <dc:format>image/svg+xml</dc:format>
        <dc:type
           rdf:resource="http://purl.org/dc/dcmitype/StillImage" />
      </cc:Work>
    </rdf:RDF>
  </metadata>
  <defs
     id="defs8" />
  <sodipodi:namedview
     pagecolor="#ffffff"
     bordercolor="#666666"
     borderopacity="1"
     objecttolerance="10"
     gridtolerance="10"
     guidetolerance="10"
     inkscape:pageopacity="0"
     inkscape:pageshadow="2"
     inkscape:window-width="1024"
     inkscape:window-height="550"
     id="namedview6"
     showgrid="false"
     inkscape:zoom="22.627417"
     inkscape:cx="7.6856486"
     inkscape:cy="8"
     inkscape:window-x="0"
     inkscape:window-y="0"
     inkscape:window-maximized="1"
     inkscape:current-layer="svg4" />
  <path
     d="M8 .031c-.4 0-.815.16-1.125.469L.5 6.875c-.62.62-.62 1.63 0 2.25L6.875 15.5c.62.62 1.63.62 2.25 0L15.5 9.125c.62-.62.62-1.63 0-2.25L9.125.5A1.604 1.604 0 008 .031zm.152 2.975a3.001 3.001 0 011.97.873 3.006 3.006 0 01.65 3.27A2.998 2.998 0 019 8.82V10H7V8a1 1 0 011-1c.407 0 .768-.24.924-.617a.994.994 0 00-.217-1.09.994.994 0 00-1.09-.217A.994.994 0 007 6H5c0-1.21.733-2.308 1.852-2.771.419-.174.864-.246 1.3-.223zM8 11a1 1 0 011 1 1 1 0 01-1 1 1 1 0 01-1-1 1 1 0 011-1z"
     style="marker:none;fill:#4d4d4d"
     color="#bebebe"
     overflow="visible"
     fill="#2e3436"
     id="path2" />
</svg>
